<svg width="180" height="180" viewBox="0 0 180 180" fill="none" xmlns="http://www.w3.org/2000/svg">
  <rect width="180" height="180" fill="white"/>
  <!-- QR Pattern (simplified) -->
  <rect x="20" y="20" width="40" height="40" fill="#0f172a"/>
  <rect x="30" y="30" width="20" height="20" fill="white"/>
  <rect x="35" y="35" width="10" height="10" fill="#0f172a"/>

  <rect x="120" y="20" width="40" height="40" fill="#0f172a"/>
  <rect x="130" y="30" width="20" height="20" fill="white"/>
  <rect x="135" y="35" width="10" height="10" fill="#0f172a"/>

  <rect x="20" y="120" width="40" height="40" fill="#0f172a"/>
  <rect x="30" y="130" width="20" height="20" fill="white"/>
  <rect x="35" y="135" width="10" height="10" fill="#0f172a"/>

  <!-- Random pattern -->
  <rect x="70" y="20" width="10" height="10" fill="#0f172a"/>
  <rect x="90" y="20" width="10" height="10" fill="#0f172a"/>
  <rect x="80" y="30" width="10" height="10" fill="#0f172a"/>
  <rect x="70" y="40" width="10" height="10" fill="#0f172a"/>
  <rect x="100" y="40" width="10" height="10" fill="#0f172a"/>

  <rect x="20" y="70" width="10" height="10" fill="#0f172a"/>
  <rect x="40" y="70" width="10" height="10" fill="#0f172a"/>
  <rect x="30" y="80" width="10" height="10" fill="#0f172a"/>
  <rect x="20" y="90" width="10" height="10" fill="#0f172a"/>
  <rect x="50" y="90" width="10" height="10" fill="#0f172a"/>

  <rect x="70" y="70" width="40" height="40" fill="#0f172a"/>
  <rect x="80" y="80" width="20" height="20" fill="white"/>
  <rect x="85" y="85" width="10" height="10" fill="#0f172a"/>

  <rect x="120" y="70" width="10" height="10" fill="#0f172a"/>
  <rect x="140" y="70" width="10" height="10" fill="#0f172a"/>
  <rect x="150" y="80" width="10" height="10" fill="#0f172a"/>
  <rect x="130" y="90" width="10" height="10" fill="#0f172a"/>
  <rect x="150" y="100" width="10" height="10" fill="#0f172a"/>

  <rect x="70" y="120" width="10" height="10" fill="#0f172a"/>
  <rect x="90" y="120" width="10" height="10" fill="#0f172a"/>
  <rect x="100" y="130" width="10" height="10" fill="#0f172a"/>
  <rect x="70" y="140" width="10" height="10" fill="#0f172a"/>
  <rect x="80" y="150" width="10" height="10" fill="#0f172a"/>

  <rect x="120" y="120" width="10" height="10" fill="#0f172a"/>
  <rect x="140" y="130" width="10" height="10" fill="#0f172a"/>
  <rect x="130" y="140" width="10" height="10" fill="#0f172a"/>
  <rect x="150" y="150" width="10" height="10" fill="#0f172a"/>

  <!-- LamaBet text -->
  <text x="90" y="175" text-anchor="middle" fill="#0f172a" font-size="8" font-family="system-ui">LamaBet Pay</text>
</svg>
